<svg width="433" height="436" viewBox="0 0 433 436" fill="none" xmlns="http://www.w3.org/2000/svg">
<path d="M300.4 435.2C275.2 435.2 252.6 429.8 232.6 419C212.6 407.8 196.8 392.4 185.2 372.8C173.6 353.2 167.8 331 167.8 306.2V122.6C167.8 116.2 166.2 110.4 163 105.2C159.8 99.9998 155.6 95.7998 150.4 92.5998C145.2 89.3998 139.4 87.7998 133 87.7998C126.6 87.7998 120.8 89.3998 115.6 92.5998C110.4 95.7998 106.2 99.9998 103 105.2C100.2 110.4 98.8004 116.2 98.8004 122.6V428H0.400391V129.8C0.400391 104.6 6.00039 82.3998 17.2004 63.1998C28.8004 43.9998 44.6004 28.7998 64.6004 17.5998C85.0004 6.39981 107.8 0.799805 133 0.799805C158.6 0.799805 181.4 6.39981 201.4 17.5998C221.4 28.7998 237.2 43.9998 248.8 63.1998C260.4 82.3998 266.2 104.6 266.2 129.8V313.4C266.2 319.8 267.8 325.8 271 331.4C274.2 336.6 278.2 340.8 283 344C288.2 346.8 293.8 348.2 299.8 348.2C306.2 348.2 312 346.8 317.2 344C322.8 340.8 327.2 336.6 330.4 331.4C333.6 325.8 335.2 319.8 335.2 313.4V7.99978H433V306.2C433 331 427.2 353.2 415.6 372.8C404 392.4 388.2 407.8 368.2 419C348.2 429.8 325.6 435.2 300.4 435.2Z" fill="white"/>
<path d="M203.5 137C203.5 175.936 171.936 207.5 133 207.5C94.0639 207.5 62.5 175.936 62.5 137C62.5 98.0639 94.0639 66.5 133 66.5C171.936 66.5 203.5 98.0639 203.5 137Z" stroke="#C3D740" stroke-width="83"/>
</svg>
