<?xml version="1.0" standalone="no"?>
<!DOCTYPE svg PUBLIC "-//W3C//DTD SVG 20010904//EN"
 "http://www.w3.org/TR/2001/REC-SVG-20010904/DTD/svg10.dtd">
<svg version="1.0" xmlns="http://www.w3.org/2000/svg"
 width="4320.000000pt" height="4320.000000pt" viewBox="0 0 4320.000000 4320.000000"
 preserveAspectRatio="xMidYMid meet">
<metadata>
Created by potrace 1.14, written by Peter Selinger 2001-2017
</metadata>
<g transform="translate(0.000000,4320.000000) scale(0.100000,-0.100000)"
fill="#000000" stroke="none">
<path d="M0 21600 l0 -21600 21600 0 21600 0 0 21600 0 21600 -21600 0 -21600
0 0 -21600z m18800 8665 c1176 -105 2186 -521 3045 -1253 138 -118 440 -423
556 -562 499 -598 829 -1240 1008 -1960 65 -265 104 -498 143 -870 9 -87 13
-1088 18 -4080 5 -3775 7 -3969 24 -4040 71 -297 195 -525 394 -727 152 -155
275 -238 451 -303 374 -138 871 -90 1214 118 161 96 323 247 429 397 101 143
186 347 225 540 17 86 18 361 21 6283 l2 6192 1955 0 1955 0 0 -6062 c0 -3908
-4 -6120 -10 -6223 -81 -1300 -579 -2426 -1464 -3310 -613 -612 -1326 -1030
-2161 -1269 -722 -205 -1545 -273 -2340 -191 -1699 176 -3079 1034 -3923 2442
-335 558 -555 1182 -651 1848 -55 382 -54 352 -58 1903 -4 1352 -5 1443 -21
1437 -48 -19 -308 -88 -414 -110 -522 -110 -1026 -131 -1544 -65 -241 31 -422
71 -766 167 -17 5 -18 -175 -18 -3681 l0 -3686 -1965 0 -1965 0 0 6113 c0
3995 4 6160 10 6252 47 650 187 1231 427 1774 508 1149 1547 2112 2783 2581
558 212 1135 328 1795 364 147 8 678 -4 845 -19z"/>
<path d="M18037 25985 c-235 -45 -450 -157 -617 -325 -237 -237 -353 -542
-337 -883 25 -523 401 -963 917 -1074 127 -27 384 -25 502 4 447 113 780 452
875 893 27 127 25 384 -4 502 -112 443 -450 777 -883 873 -106 23 -353 29
-453 10z"/>
</g>
</svg>
